<svg width="24" height="24" viewBox="0 0 24 24" fill="none" xmlns="http://www.w3.org/2000/svg">
    <g>
        <path d="M13 21.5H11V1.5C11 1.23478 11.1054 0.98043 11.2929 0.792893C11.4804 0.605357 11.7348 0.5 12 0.5C12.2652 0.5 12.5196 0.605357 12.7071 0.792893C12.8946 0.98043 13 1.23478 13 1.5V21.5Z"
              stroke="#444A51"/>
        <path d="M15.5 23.5H8.5C8.23478 23.5 7.98043 23.3946 7.79289 23.2071C7.60536 23.0196 7.5 22.7652 7.5 22.5C7.5 22.2348 7.60536 21.9804 7.79289 21.7929C7.98043 21.6054 8.23478 21.5 8.5 21.5H15.5C15.7652 21.5 16.0196 21.6054 16.2071 21.7929C16.3946 21.9804 16.5 22.2348 16.5 22.5C16.5 22.7652 16.3946 23.0196 16.2071 23.2071C16.0196 23.3946 15.7652 23.5 15.5 23.5Z"
              stroke="#444A51"/>
        <path d="M13 11.5H15.382C15.7258 11.5 16.0662 11.4323 16.3839 11.3007C16.7015 11.1691 16.9901 10.9763 17.2332 10.7332C17.4763 10.4901 17.6691 10.2015 17.8007 9.88387C17.9323 9.56623 18 9.2258 18 8.882V8.5"
              stroke="#444A51"/>
        <path d="M11 6.5H10.118C9.42366 6.5 8.75776 6.22418 8.26679 5.73321C7.77582 5.24224 7.5 4.57634 7.5 3.882V3.5"
              stroke="#444A51"/>
        <path d="M11 13.5H8.618C7.92366 13.5 7.25776 13.2242 6.76679 12.7332C6.27582 12.2422 6 11.5763 6 10.882V10.5"
              stroke="#444A51"/>
        <path d="M7.5 3.5C7.77614 3.5 8 3.27614 8 3C8 2.72386 7.77614 2.5 7.5 2.5C7.22386 2.5 7 2.72386 7 3C7 3.27614 7.22386 3.5 7.5 3.5Z"
              stroke="#444A51"/>
        <path d="M13 4.5H13.882C14.2258 4.5 14.5662 4.43228 14.8839 4.30072C15.2015 4.16915 15.4901 3.97631 15.7332 3.73321C15.9763 3.4901 16.1691 3.2015 16.3007 2.88387C16.4323 2.56623 16.5 2.2258 16.5 1.882V1.5"
              stroke="#444A51"/>
        <path d="M16.5 1.5C16.7761 1.5 17 1.27614 17 1C17 0.723858 16.7761 0.5 16.5 0.5C16.2239 0.5 16 0.723858 16 1C16 1.27614 16.2239 1.5 16.5 1.5Z"
              stroke="#444A51"/>
        <path d="M18 8.5C18.2761 8.5 18.5 8.27614 18.5 8C18.5 7.72386 18.2761 7.5 18 7.5C17.7239 7.5 17.5 7.72386 17.5 8C17.5 8.27614 17.7239 8.5 18 8.5Z"
              stroke="#444A51"/>
        <path d="M6 10.5C6.27614 10.5 6.5 10.2761 6.5 10C6.5 9.72386 6.27614 9.5 6 9.5C5.72386 9.5 5.5 9.72386 5.5 10C5.5 10.2761 5.72386 10.5 6 10.5Z"
              stroke="#444A51"/>
    </g>

</svg>
