<svg width="24" height="24" viewBox="0 0 24 24" fill="none" xmlns="http://www.w3.org/2000/svg">
    <g>
        <path d="M22 18.5H2C1.60218 18.5 1.22064 18.342 0.93934 18.0607C0.658035 17.7794 0.5 17.3978 0.5 17V15C0.5 14.6022 0.658035 14.2206 0.93934 13.9393C1.22064 13.658 1.60218 13.5 2 13.5H22C22.3978 13.5 22.7794 13.658 23.0607 13.9393C23.342 14.2206 23.5 14.6022 23.5 15V17C23.5 17.3978 23.342 17.7794 23.0607 18.0607C22.7794 18.342 22.3978 18.5 22 18.5Z"
              stroke="#444A51"/>
        <path d="M1.5 13.585V5C1.5 4.60218 1.65804 4.22064 1.93934 3.93934C2.22064 3.65804 2.60218 3.5 3 3.5H21C21.3978 3.5 21.7794 3.65804 22.0607 3.93934C22.342 4.22064 22.5 4.60218 22.5 5V13.586"
              stroke="#444A51"/>
        <path d="M2.5 18.5V20.5H3.5L4.5 18.5" stroke="#444A51"/>
        <path d="M21.5 18.5V20.5H20.5L19.5 18.5" stroke="#444A51"/>
        <path d="M3.5 12.5C3.948 11.86 4.556 11.5 5.19 11.5H8.81C9.444 11.5 10.052 11.86 10.5 12.5C10.052 13.14 9.444 13.5 8.81 13.5H5.19C4.556 13.5 3.948 13.14 3.5 12.5V12.5Z"
              stroke="#444A51"/>
        <path d="M13.5 12.5C13.948 11.86 14.556 11.5 15.19 11.5H18.81C19.444 11.5 20.052 11.86 20.5 12.5C20.052 13.14 19.444 13.5 18.81 13.5H15.19C14.556 13.5 13.948 13.14 13.5 12.5V12.5Z"
              stroke="#444A51"/>
    </g>
</svg>
