<svg width="24" height="24" viewBox="0 0 24 24" fill="none" xmlns="http://www.w3.org/2000/svg">
    <g>
        <path d="M1.26 15.21L10.236 2.34C10.6255 1.77297 11.1471 1.30919 11.7558 0.988642C12.3645 0.668093 13.0421 0.500393 13.73 0.5H13.81C14.267 0.5 14.72 0.574 15.152 0.718L15.29 0.764C15.8977 0.966568 16.4517 1.30414 16.9103 1.75139C17.3689 2.19863 17.7202 2.74393 17.938 3.34637C18.1557 3.94882 18.2342 4.59275 18.1675 5.22986C18.1009 5.86696 17.8908 6.4807 17.553 7.025L10.03 19.002"
              stroke="#444A51"/>
        <path d="M22.5 5.5H23.5" stroke="#444A51"/>
        <path d="M11.5 23.5H12.5" stroke="#444A51"/>
        <path d="M13.333 20.5H14.5" stroke="#444A51"/>
        <path d="M15.167 17.5H16.5" stroke="#444A51"/>
        <path d="M17 14.5H18" stroke="#444A51"/>
        <path d="M18.833 11.5H20" stroke="#444A51"/>
        <path d="M20.667 8.5H21.5" stroke="#444A51"/>
        <path d="M18.131 5.5H22.5L11.5 23.5H6C4.54131 23.5 3.14236 22.9205 2.11091 21.8891C1.07946 20.8576 0.5 19.4587 0.5 18C0.5 16.5413 1.07946 15.1424 2.11091 14.1109C3.14236 13.0795 4.54131 12.5 6 12.5C7.19347 12.5 8.33807 12.9741 9.18198 13.818C10.0259 14.6619 10.5 15.8065 10.5 17C10.5 18.1935 10.0259 19.3381 9.18198 20.182C8.33807 21.0259 7.19347 21.5 6 21.5C5.07174 21.5 4.1815 21.1313 3.52513 20.4749C2.86875 19.8185 2.5 18.9283 2.5 18C2.5 17.0717 2.86875 16.1815 3.52513 15.5251C4.1815 14.8687 5.07174 14.5 6 14.5C6.66304 14.5 7.29893 14.7634 7.76777 15.2322C8.23661 15.7011 8.5 16.337 8.5 17C8.5 17.663 8.23661 18.2989 7.76777 18.7678C7.29893 19.2366 6.66304 19.5 6 19.5C5.60218 19.5 5.22064 19.342 4.93934 19.0607C4.65804 18.7794 4.5 18.3978 4.5 18C4.5 17.6022 4.65804 17.2206 4.93934 16.9393C5.22064 16.658 5.60218 16.5 6 16.5L7.167 14.79"
              stroke="#444A51"/>
    </g>

</svg>
