<svg width="24" height="24" viewBox="0 0 24 24" fill="none" xmlns="http://www.w3.org/2000/svg">
    <g>
        <path d="M19.5 11C19.5 14.59 15.59 16.5 12 16.5C8.41 16.5 4.5 14.59 4.5 11C4.5 7.41 8.41 0.5 12 0.5C15.59 0.5 19.5 7.41 19.5 11Z"
              stroke="#444A51"/>
        <path d="M15.5 10.5C14.5 10.5 13.5 11.5 12 11.5C10.5 11.5 9.5 10.5 8.5 10.5C8.23478 10.5 7.98043 10.6054 7.79289 10.7929C7.60536 10.9804 7.5 11.2348 7.5 11.5C7.5 12.5 9 13.5 12 13.5C15 13.5 16.5 12.5 16.5 11.5C16.5 11.2348 16.3946 10.9804 16.2071 10.7929C16.0196 10.6054 15.7652 10.5 15.5 10.5Z"
              stroke="#444A51"/>
        <path d="M7.63 15.511L5.5 23.5" stroke="#444A51"/>
        <path d="M16.37 15.511L18.5 23.5" stroke="#444A51"/>
    </g>

</svg>
