<svg width="24" height="24" viewBox="0 0 24 24" fill="none" xmlns="http://www.w3.org/2000/svg">
    <g>
        <path d="M19 21.5H5C4.60218 21.5 4.22064 21.342 3.93934 21.0607C3.65804 20.7794 3.5 20.3978 3.5 20V2C3.5 1.60218 3.65804 1.22064 3.93934 0.93934C4.22064 0.658035 4.60218 0.5 5 0.5H19C19.3978 0.5 19.7794 0.658035 20.0607 0.93934C20.342 1.22064 20.5 1.60218 20.5 2V20C20.5 20.3978 20.342 20.7794 20.0607 21.0607C19.7794 21.342 19.3978 21.5 19 21.5Z"
              stroke="#444A51"
        />
        <path d="M12 0.5V21.5" stroke="#444A51"/>
        <path d="M13.5 11.5V12.5" stroke="#444A51"/>
        <path d="M10.5 11.5V12.5" stroke="#444A51"/>
        <path d="M5.5 21.5V23.5H7.5V21.5" stroke="#444A51"/>
        <path d="M16.5 21.5V23.5H18.5V21.5" stroke="#444A51"/>
    </g>
</svg>
