<svg width="24" height="24" viewBox="0 0 24 24" fill="none" xmlns="http://www.w3.org/2000/svg">
    <g>
        <path d="M1.5 14.5H8.5V22.5H1.5V14.5Z" stroke="#444A51"/>
        <path d="M8.5 14.5H15.5V22.5H8.5V14.5Z" stroke="#444A51"/>
        <path d="M15.5 14.5H22.5V22.5H15.5V14.5Z" stroke="#444A51"/>
        <path d="M2.5 22.5V23.5" stroke="#444A51"/>
        <path d="M21.5 22.5V23.5" stroke="#444A51"/>
        <path d="M6.5 16.5H5.5" stroke="#444A51"/>
        <path d="M17.5 16.5H18.5" stroke="#444A51"/>
        <path d="M11.5 16.5H12.5" stroke="#444A51"/>
        <path d="M1.5 1.5H8.5V8.5H1.5V1.5Z" stroke="#444A51"/>
        <path d="M15.5 1.5H22.5V8.5H15.5V1.5Z" stroke="#444A51"/>
        <path d="M8.5 0.5H15.5V8.5H8.5V0.5Z" stroke="#444A51"/>
        <path d="M0.5 14.5H23.5" stroke="#444A51"/>
        <path d="M6.5 6.5H5.5" stroke="#444A51"/>
        <path d="M17.5 6.5H18.5" stroke="#444A51"/>
        <path d="M11.5 6.5H12.5" stroke="#444A51"/>
    </g>

</svg>
