<svg width="24" height="24" viewBox="0 0 24 24" fill="none" xmlns="http://www.w3.org/2000/svg">
    <path d="M3 14.5H6L7.5 19.5H1.5L3 14.5Z" stroke="#444A51"/>
    <path d="M18 14.5H21L22.5 19.5H16.5L18 14.5Z" stroke="#444A51"/>
    <path d="M12.5 3.5H11.5C10.9696 3.5 10.4609 3.28929 10.0858 2.91421C9.71071 2.53914 9.5 2.03043 9.5 1.5H14.5C14.5 2.03043 14.2893 2.53914 13.9142 2.91421C13.5391 3.28929 13.0304 3.5 12.5 3.5Z"
          stroke="#444A51"/>
    <path d="M12 3.5V19.45C12.0001 19.7577 12.0949 20.058 12.2714 20.3101C12.448 20.5621 12.6978 20.7538 12.987 20.859L17.218 22.398C17.4749 22.4916 17.7506 22.5219 18.0216 22.4862C18.2927 22.4506 18.5512 22.3501 18.7751 22.1933C18.9991 22.0364 19.1819 21.8279 19.3081 21.5854C19.4343 21.3428 19.5001 21.0734 19.5 20.8V19.5"
          stroke="#444A51"/>
    <path d="M12 19V19.45C11.9999 19.7577 11.9051 20.058 11.7286 20.3101C11.552 20.5621 11.3022 20.7538 11.013 20.859L6.782 22.398C6.52512 22.4916 6.24945 22.5219 5.97837 22.4862C5.7073 22.4506 5.44882 22.3501 5.22487 22.1933C5.00091 22.0364 4.81809 21.8279 4.6919 21.5854C4.56571 21.3428 4.49988 21.0734 4.5 20.8V19.5"
          stroke="#444A51"/>
</svg>
