<svg width="24" height="24" viewBox="0 0 24 24" fill="none" xmlns="http://www.w3.org/2000/svg">
    <g>
        <path d="M4.5 12.5V10.607C4.5 9.61099 3.82 8.68699 2.836 8.52699C2.54896 8.47825 2.25475 8.49273 1.97388 8.56943C1.69302 8.64612 1.43228 8.78318 1.20985 8.97105C0.987422 9.15891 0.80867 9.39305 0.686067 9.65712C0.563464 9.9212 0.499965 10.2088 0.5 10.5C0.5 11.238 0.905 11.876 1.5 12.223V16C1.5 16.3978 1.65804 16.7793 1.93934 17.0607C2.22064 17.342 2.60218 17.5 3 17.5H21C21.3978 17.5 21.7794 17.342 22.0607 17.0607C22.342 16.7793 22.5 16.3978 22.5 16V12.223C22.8504 12.0233 23.132 11.7219 23.3074 11.3586C23.4828 10.9954 23.5438 10.5875 23.4824 10.1888C23.4209 9.79019 23.2399 9.41959 22.9632 9.12606C22.6866 8.83254 22.3273 8.62991 21.933 8.54499C21.6405 8.48051 21.3373 8.48248 21.0457 8.55075C20.7541 8.61901 20.4815 8.75184 20.248 8.93944C20.0145 9.12704 19.8261 9.36464 19.6967 9.63472C19.5672 9.9048 19.5 10.2005 19.5 10.5V12.5"
              stroke="#444A51"/>
        <path d="M11 14.5H4.5C4.23478 14.5 3.98043 14.3946 3.79289 14.2071C3.60536 14.0196 3.5 13.7652 3.5 13.5C3.5 13.2348 3.60536 12.9804 3.79289 12.7929C3.98043 12.6054 4.23478 12.5 4.5 12.5H11C11.2652 12.5 11.5196 12.6054 11.7071 12.7929C11.8946 12.9804 12 13.2348 12 13.5C12 13.7652 11.8946 14.0196 11.7071 14.2071C11.5196 14.3946 11.2652 14.5 11 14.5Z"
              stroke="#444A51"/>
        <path d="M19.5 14.5H13C12.7348 14.5 12.4804 14.3946 12.2929 14.2071C12.1054 14.0196 12 13.7652 12 13.5C12 13.2348 12.1054 12.9804 12.2929 12.7929C12.4804 12.6054 12.7348 12.5 13 12.5H19.5C19.7652 12.5 20.0196 12.6054 20.2071 12.7929C20.3946 12.9804 20.5 13.2348 20.5 13.5C20.5 13.7652 20.3946 14.0196 20.2071 14.2071C20.0196 14.3946 19.7652 14.5 19.5 14.5Z"
              stroke="#444A51"/>
        <path d="M2.761 8.517C4.537 5.55 8.01 4.5 12 4.5C15.987 4.5 19.455 5.555 21.233 8.517" stroke="#444A51"/>
        <path d="M3.5 17.5V18.5C3.5 18.7652 3.60536 19.0196 3.79289 19.2071C3.98043 19.3946 4.23478 19.5 4.5 19.5C4.76522 19.5 5.01957 19.3946 5.20711 19.2071C5.39464 19.0196 5.5 18.7652 5.5 18.5V17.5"
              stroke="#444A51"/>
        <path d="M18.5 17.5V18.5C18.5 18.7652 18.6054 19.0196 18.7929 19.2071C18.9804 19.3946 19.2348 19.5 19.5 19.5C19.7652 19.5 20.0196 19.3946 20.2071 19.2071C20.3946 19.0196 20.5 18.7652 20.5 18.5V17.5"
              stroke="#444A51"/>
    </g>
</svg>
