<svg width="24" height="24" viewBox="0 0 24 24" fill="none" xmlns="http://www.w3.org/2000/svg">
    <g>
        <path d="M16.5 4.581V14.5H7.50001V4.581C7.50001 3.865 7.38501 3.154 7.15801 2.474C7.08291 2.24854 7.06246 2.00847 7.09834 1.77355C7.13421 1.53864 7.22539 1.31561 7.36435 1.12284C7.50331 0.930075 7.68608 0.773079 7.89761 0.664791C8.10914 0.556503 8.34337 0.500022 8.58101 0.5H15.419C15.6566 0.500022 15.8909 0.556503 16.1024 0.664791C16.3139 0.773079 16.4967 0.930075 16.6357 1.12284C16.7746 1.31561 16.8658 1.53864 16.9017 1.77355C16.9376 2.00847 16.9171 2.24854 16.842 2.474C16.6155 3.15339 16.5 3.86485 16.5 4.581V4.581Z"
              stroke="#444A51"/>
        <path d="M17.5 16.5H6.5C6.23478 16.5 5.98043 16.3946 5.79289 16.2071C5.60536 16.0196 5.5 15.7652 5.5 15.5C5.5 15.2348 5.60536 14.9804 5.79289 14.7929C5.98043 14.6054 6.23478 14.5 6.5 14.5H17.5C17.7652 14.5 18.0196 14.6054 18.2071 14.7929C18.3946 14.9804 18.5 15.2348 18.5 15.5C18.5 15.7652 18.3946 16.0196 18.2071 16.2071C18.0196 16.3946 17.7652 16.5 17.5 16.5Z"
              stroke="#444A51"/>
        <path d="M17.5 14.5L18.5 11.5H20.5" stroke="#444A51"/>
        <path d="M6.5 14.5L5.5 11.5H3.5" stroke="#444A51"/>
        <path d="M11.5 16.5V19.5L12 20.5L12.5 19.5V16.5" stroke="#444A51"/>
        <path d="M12 20.5V23" stroke="#444A51"/>
        <path d="M12 20.5L16 21.987" stroke="#444A51"/>
        <path d="M12 20.5L8 21.987" stroke="#444A51"/>
        <path d="M7.75 22.5C7.88807 22.5 8 22.2761 8 22C8 21.7239 7.88807 21.5 7.75 21.5C7.61193 21.5 7.5 21.7239 7.5 22C7.5 22.2761 7.61193 22.5 7.75 22.5Z"
              stroke="#444A51"/>
        <path d="M12 23.5C12.1381 23.5 12.25 23.2761 12.25 23C12.25 22.7239 12.1381 22.5 12 22.5C11.8619 22.5 11.75 22.7239 11.75 23C11.75 23.2761 11.8619 23.5 12 23.5Z"
              stroke="#444A51"/>
        <path d="M16.25 22.5C16.3881 22.5 16.5 22.2761 16.5 22C16.5 21.7239 16.3881 21.5 16.25 21.5C16.1119 21.5 16 21.7239 16 22C16 22.2761 16.1119 22.5 16.25 22.5Z"
              stroke="#444A51"/>
        <path d="M9.5 3.5H14.5" stroke="#444A51"/>
    </g>
</svg>
