<svg width="24" height="24" viewBox="0 0 24 24" fill="none" xmlns="http://www.w3.org/2000/svg">
    <g>
        <path d="M22 12.5H2C1.60218 12.5 1.22064 12.342 0.93934 12.0607C0.658035 11.7794 0.5 11.3978 0.5 11V6C0.5 5.60218 0.658035 5.22064 0.93934 4.93934C1.22064 4.65804 1.60218 4.5 2 4.5H22C22.3978 4.5 22.7794 4.65804 23.0607 4.93934C23.342 5.22064 23.5 5.60218 23.5 6V11C23.5 11.3978 23.342 11.7794 23.0607 12.0607C22.7794 12.342 22.3978 12.5 22 12.5V12.5Z"
              stroke="#444A51"/>
        <path d="M20 10.5H4C3.60218 10.5 3.22064 10.342 2.93934 10.0607C2.65804 9.77936 2.5 9.39782 2.5 9V8C2.5 7.60218 2.65804 7.22064 2.93934 6.93934C3.22064 6.65804 3.60218 6.5 4 6.5H20C20.3978 6.5 20.7794 6.65804 21.0607 6.93934C21.342 7.22064 21.5 7.60218 21.5 8V9C21.5 9.39782 21.342 9.77936 21.0607 10.0607C20.7794 10.342 20.3978 10.5 20 10.5Z"
              stroke="#444A51"/>
        <path d="M5.5 8.5H7.5" stroke="#444A51"/>
        <path d="M16.5 8.5H18.5" stroke="#444A51"/>
        <path d="M3.5 12.5V19.5H4.5L5.5 12.5" stroke="#444A51"/>
        <path d="M20.5 12.5V19.5H19.5L18.5 12.5" stroke="#444A51"/>
    </g>
</svg>
