<svg width="412" height="190" viewBox="0 0 412 190" fill="none" xmlns="http://www.w3.org/2000/svg">
<path d="M131.548 23.031L149.16 53.7379L53.8549 127.996L36.2423 97.2887L131.548 23.031Z" fill="#FF4E00"/>
<path d="M80.6064 109.138L98.219 139.845L29.3947 139.844L11.7822 109.137L80.6064 109.138Z" fill="#FF7233"/>
<path d="M127.351 57.1539L144.963 87.8609L121.943 127.995L104.33 97.2884L127.351 57.1539Z" fill="#FF7233"/>
<path d="M111.076 109.137L128.689 139.844L115.147 139.845L97.5347 109.138L111.076 109.137Z" fill="#FF7233"/>
<path d="M114.429 103.293L132.042 133.999L128.689 139.844L111.076 109.138L114.429 103.293Z" fill="#FF7233"/>
<path d="M82.1264 136L99.7397 166.707L82.8115 166.707L65.1989 136L82.1264 136Z" fill="#FF7233"/>
<path d="M97.5347 109.138L115.147 139.845L99.7398 166.707L82.1265 136L97.5347 109.138Z" fill="#FF7233"/>
<path d="M131.548 23.031L36.2424 97.2887L87.4026 97.2889L110.423 57.1545L127.351 57.154L104.33 97.2884L114.429 103.293L111.076 109.138L97.5346 109.138L82.1264 136L65.199 136L80.6064 109.138L11.7822 109.137L18.5784 97.2887L113.795 23.0306L131.548 23.031Z" fill="#FFB99A"/>
<path d="M248.101 42.107L265.714 72.8139C262.648 67.4701 255.817 64.7991 245.224 64.7985C219.42 64.7987 197.887 79.8326 180.637 109.908C170.573 127.452 167.68 139.949 171.953 147.399L154.34 116.693C150.068 109.243 152.961 96.7454 163.024 79.2009C180.273 49.1261 201.807 34.0922 227.612 34.0923C238.206 34.0918 245.036 36.764 248.101 42.107Z" fill="#FF4E00"/>
<path d="M266.718 34.2557L284.331 64.9622C289.782 74.4653 286.55 89.6045 274.636 110.377C252.796 148.452 223.354 167.494 186.32 167.494C168.853 167.494 157.776 163.408 153.089 155.236L135.476 124.529C140.164 132.702 151.24 136.788 168.708 136.787C205.741 136.787 235.183 117.747 257.023 79.6716C268.938 58.8971 272.169 43.7588 266.718 34.2557Z" fill="#FF7233"/>
<path d="M175.504 124.939C200.636 124.938 221.956 109.69 239.444 79.2008C256.694 49.1268 252.744 34.0923 227.612 34.0923C201.807 34.0922 180.273 49.1261 163.024 79.2009C145.536 109.69 149.7 124.938 175.504 124.939ZM234.412 22.2364C271.445 22.236 278.985 41.3808 257.023 79.6715C235.183 117.747 205.741 136.787 168.708 136.787C131.003 136.788 123.075 117.746 144.914 79.6706C166.876 41.3811 196.706 22.2368 234.412 22.2364Z" fill="#FFB99A"/>
<path d="M375.438 23.0311L393.051 53.738L297.746 127.995L280.133 97.2888L375.438 23.0311Z" fill="#FF4E00"/>
<path d="M324.497 109.138L342.109 139.845L273.285 139.844L255.673 109.138L324.497 109.138Z" fill="#FF7233"/>
<path d="M371.242 57.1549L388.855 87.8613L365.834 127.995L348.221 97.2886L371.242 57.1549Z" fill="#FF7233"/>
<path d="M354.967 109.137L372.58 139.844L359.037 139.844L341.425 109.137L354.967 109.137Z" fill="#FF7233"/>
<path d="M358.32 103.293L375.933 134L372.58 139.844L354.967 109.137L358.32 103.293Z" fill="#FF7233"/>
<path d="M326.018 136L343.63 166.707L326.702 166.707L309.089 136L326.018 136Z" fill="#FF7233"/>
<path d="M341.425 109.137L359.037 139.844L343.63 166.707L326.018 136L341.425 109.137Z" fill="#FF7233"/>
<path d="M375.438 23.0311L280.133 97.2888L331.293 97.289L354.313 57.1546L371.242 57.1548L348.221 97.2885L358.32 103.293L354.967 109.137L341.425 109.137L326.018 136L309.089 136L324.497 109.138L255.673 109.138L262.469 97.2888L357.686 23.0314L375.438 23.0311Z" fill="#FFB99A"/>
</svg>
