<svg width="24" height="24" viewBox="0 0 24 24" fill="none" xmlns="http://www.w3.org/2000/svg">
<path d="M22 12.3436C22 11.9014 21.8243 11.4773 21.5116 11.1646C21.199 10.8519 20.7749 10.6763 20.3326 10.6763H7.67738L11.5123 6.85801C11.6678 6.70255 11.7911 6.51799 11.8752 6.31486C11.9594 6.11174 12.0027 5.89404 12.0027 5.67418C12.0027 5.45433 11.9594 5.23662 11.8752 5.0335C11.7911 4.83038 11.6678 4.64582 11.5123 4.49036C11.3568 4.33489 11.1723 4.21158 10.9692 4.12744C10.766 4.0433 10.5483 4 10.3285 4C10.1086 4 9.89092 4.0433 9.6878 4.12744C9.48468 4.21158 9.30012 4.33489 9.14466 4.49036L2.47522 11.1598C2.32342 11.3184 2.20443 11.5054 2.12507 11.71C1.95831 12.116 1.95831 12.5713 2.12507 12.9772C2.20443 13.1819 2.32342 13.3689 2.47522 13.5274L9.14466 20.1969C9.29966 20.3532 9.48407 20.4772 9.68726 20.5619C9.89044 20.6465 10.1084 20.6901 10.3285 20.6901C10.5486 20.6901 10.7665 20.6465 10.9697 20.5619C11.1729 20.4772 11.3573 20.3532 11.5123 20.1969C11.6686 20.0419 11.7926 19.8575 11.8773 19.6543C11.9619 19.4511 12.0055 19.2332 12.0055 19.0131C12.0055 18.7929 11.9619 18.575 11.8773 18.3718C11.7926 18.1686 11.6686 17.9842 11.5123 17.8292L7.67738 14.011H20.3326C20.7749 14.011 21.199 13.8353 21.5116 13.5226C21.8243 13.2099 22 12.7858 22 12.3436Z" fill="#444A51"/>
</svg>
