<svg width="24" height="24" viewBox="0 0 24 24" fill="none" xmlns="http://www.w3.org/2000/svg">
<path d="M10.9458 8.32193L5.2958 13.9819C5.20207 14.0749 5.12768 14.1855 5.07691 14.3074C5.02614 14.4292 5 14.5599 5 14.6919C5 14.8239 5.02614 14.9547 5.07691 15.0765C5.12768 15.1984 5.20207 15.309 5.2958 15.4019C5.48316 15.5882 5.73661 15.6927 6.0008 15.6927C6.26498 15.6927 6.51844 15.5882 6.7058 15.4019L11.7058 10.4519L16.6558 15.4019C16.8432 15.5882 17.0966 15.6927 17.3608 15.6927C17.625 15.6927 17.8784 15.5882 18.0658 15.4019C18.1603 15.3093 18.2355 15.1989 18.287 15.077C18.3384 14.9551 18.3652 14.8242 18.3658 14.6919C18.3652 14.5596 18.3384 14.4287 18.287 14.3069C18.2355 14.185 18.1603 14.0745 18.0658 13.9819L12.4158 8.32193C12.3222 8.22043 12.2085 8.13942 12.082 8.08401C11.9555 8.02861 11.8189 8 11.6808 8C11.5427 8 11.4061 8.02861 11.2796 8.08401C11.1531 8.13942 11.0394 8.22043 10.9458 8.32193Z" fill="#444A51"/>
</svg>
