<svg width="24" height="24" viewBox="0 0 24 24" fill="none" xmlns="http://www.w3.org/2000/svg">
<path d="M12.42 15.3708L18.07 9.71078C18.1637 9.61782 18.2381 9.50722 18.2889 9.38536C18.3397 9.2635 18.3658 9.1328 18.3658 9.00078C18.3658 8.86877 18.3397 8.73807 18.2889 8.61621C18.2381 8.49435 18.1637 8.38375 18.07 8.29078C17.8826 8.10453 17.6292 7.99999 17.365 7.99999C17.1008 7.99999 16.8474 8.10453 16.66 8.29078L11.66 13.2408L6.71 8.29078C6.52264 8.10453 6.26919 7.99999 6.005 7.99999C5.74082 7.99999 5.48736 8.10453 5.3 8.29078C5.20551 8.3834 5.13034 8.49384 5.07885 8.61572C5.02735 8.73759 5.00055 8.86848 5 9.00078C5.00055 9.13309 5.02735 9.26397 5.07885 9.38585C5.13034 9.50772 5.20551 9.61817 5.3 9.71078L10.95 15.3708C11.0436 15.4723 11.1573 15.5533 11.2838 15.6087C11.4103 15.6641 11.5469 15.6927 11.685 15.6927C11.8231 15.6927 11.9597 15.6641 12.0862 15.6087C12.2127 15.5533 12.3264 15.4723 12.42 15.3708Z" fill="#444A51"/>
</svg>
