<svg width="53" height="52" viewBox="0 0 53 52" fill="none" xmlns="http://www.w3.org/2000/svg">
<path d="M0 7.99999C0 3.58172 3.58172 0 8 0H45C49.4183 0 53 3.58172 53 8V43.8352C53 48.2534 49.4183 51.8352 45 51.8352H8C3.58172 51.8352 0 48.2534 0 43.8352V7.99999Z" fill="#FFDCCD"/>
<path d="M38.9969 18.1285L15.0053 18.2179L14.4512 11.567C14.2733 10.0511 14.6799 8.52445 15.588 7.29774C16.4961 6.07102 17.8375 5.23646 19.3393 4.96393L20.918 4.67735C24.9426 3.94695 29.0659 3.9474 33.0903 4.67867L34.6622 4.96427C36.1636 5.23709 37.5047 6.07173 38.4125 7.29834C39.3203 8.52495 39.7267 10.0514 39.5488 11.567L38.9969 18.1285Z" fill="#CC3E00"/>
<path d="M15.0178 18.2179C15.1063 21.3451 16.4138 24.3138 18.6611 26.4903C20.9084 28.6667 23.9175 29.8785 27.0459 29.8668C30.1744 29.8551 33.1743 28.6209 35.4053 26.4278C37.6363 24.2346 38.9215 21.2562 38.9867 18.1284L15.0178 18.2179Z" fill="#FFB99A"/>
<path d="M37.3961 28.7695V28.7697L28.4141 37.7517C28.2285 37.9374 28.008 38.0848 27.7654 38.1853C27.5228 38.2859 27.2627 38.3376 27.0001 38.3376C26.7374 38.3376 26.4774 38.2859 26.2347 38.1853C25.9921 38.0848 25.7717 37.9374 25.586 37.7517L16.604 28.7697V28.7695C13.9871 30.3543 11.771 32.5215 10.1282 35.1024C8.48535 37.6833 7.46004 40.6084 7.132 43.6502C7.10158 43.9294 7.13034 44.212 7.21639 44.4794C7.30244 44.7468 7.44386 44.9931 7.63143 45.2023C7.819 45.4114 8.04853 45.5787 8.30505 45.6932C8.56158 45.8077 8.83935 45.8669 9.12028 45.867H44.8799C45.1608 45.8669 45.4386 45.8077 45.6951 45.6932C45.9516 45.5787 46.1812 45.4114 46.3687 45.2023C46.5563 44.9931 46.6977 44.7468 46.7838 44.4794C46.8698 44.212 46.8986 43.9294 46.8682 43.6502C46.5401 40.6084 45.5148 37.6833 43.872 35.1024C42.2291 32.5215 40.0131 30.3543 37.3961 28.7695Z" fill="#CC3E00"/>
<path d="M34.3814 27.3082C32.2707 28.9497 29.6732 29.8409 26.9993 29.8409C24.3255 29.8409 21.7279 28.9496 19.6174 27.3079C18.5738 27.7101 17.5658 28.199 16.6039 28.7696L25.5859 37.7516C25.7716 37.9374 25.992 38.0847 26.2347 38.1853C26.4773 38.2858 26.7374 38.3376 27 38.3376C27.2626 38.3376 27.5227 38.2858 27.7653 38.1853C28.008 38.0847 28.2284 37.9374 28.4141 37.7516L37.3961 28.7696C36.434 28.1989 35.4258 27.7099 34.3821 27.3076L34.3814 27.3082Z" fill="#FF7233"/>
</svg>
