<svg xmlns="http://www.w3.org/2000/svg" width="24" height="24" fill="none"  stroke="#000" stroke-width="2"  xmlns:v="https://vecta.io/nano"><path d="M16.285 2h3.267A2.46 2.46 0 0 1 22 4.47v3.294a2.46 2.46 0 0 1-2.448 2.47h-3.267c-1.352 0-2.449-1.107-2.449-2.47V4.47A2.46 2.46 0 0 1 16.285 2zM4.449 2h3.266a2.46 2.46 0 0 1 2.449 2.47v3.294a2.46 2.46 0 0 1-2.449 2.47H4.449A2.46 2.46 0 0 1 2 7.764V4.47A2.46 2.46 0 0 1 4.449 2zm0 11.766h3.266a2.46 2.46 0 0 1 2.449 2.471v3.293A2.46 2.46 0 0 1 7.714 22H4.449A2.46 2.46 0 0 1 2 19.53v-3.293a2.46 2.46 0 0 1 2.449-2.471zm11.836 0h3.267A2.46 2.46 0 0 1 22 16.237v3.293A2.46 2.46 0 0 1 19.552 22h-3.267a2.46 2.46 0 0 1-2.449-2.47v-3.293a2.46 2.46 0 0 1 2.449-2.471z"/></svg>