<svg width="24" height="24" viewBox="0 0 24 24" fill="none" xmlns="http://www.w3.org/2000/svg">
<path d="M13.41 11.9991L19.71 5.70915C19.8983 5.52084 20.0041 5.26545 20.0041 4.99915C20.0041 4.73285 19.8983 4.47745 19.71 4.28915C19.5217 4.10084 19.2663 3.99506 19 3.99506C18.7337 3.99506 18.4783 4.10084 18.29 4.28915L12 10.5891L5.71 4.28915C5.5217 4.10084 5.2663 3.99506 5 3.99506C4.7337 3.99506 4.4783 4.10084 4.29 4.28915C4.1017 4.47745 3.99591 4.73285 3.99591 4.99915C3.99591 5.26545 4.1017 5.52084 4.29 5.70915L10.59 11.9991L4.29 18.2891C4.19627 18.3821 4.12188 18.4927 4.07111 18.6146C4.02034 18.7364 3.9942 18.8671 3.9942 18.9991C3.9942 19.1312 4.02034 19.2619 4.07111 19.3837C4.12188 19.5056 4.19627 19.6162 4.29 19.7091C4.38296 19.8029 4.49356 19.8773 4.61542 19.928C4.73728 19.9788 4.86799 20.0049 5 20.0049C5.13201 20.0049 5.26272 19.9788 5.38458 19.928C5.50644 19.8773 5.61704 19.8029 5.71 19.7091L12 13.4091L18.29 19.7091C18.383 19.8029 18.4936 19.8773 18.6154 19.928C18.7373 19.9788 18.868 20.0049 19 20.0049C19.132 20.0049 19.2627 19.9788 19.3846 19.928C19.5064 19.8773 19.617 19.8029 19.71 19.7091C19.8037 19.6162 19.8781 19.5056 19.9289 19.3837C19.9797 19.2619 20.0058 19.1312 20.0058 18.9991C20.0058 18.8671 19.9797 18.7364 19.9289 18.6146C19.8781 18.4927 19.8037 18.3821 19.71 18.2891L13.41 11.9991Z" fill="#444A51"/>
</svg>
