<svg width="24" height="24" viewBox="0 0 24 24" fill="none" xmlns="http://www.w3.org/2000/svg">
<path d="M18 7H17.65C17.8782 6.53276 17.9979 6.01999 18 5.5C18.003 4.80333 17.7975 4.12169 17.4098 3.54283C17.0221 2.96397 16.4701 2.51438 15.8247 2.25194C15.1794 1.98949 14.4703 1.9262 13.7886 2.07021C13.107 2.21422 12.4841 2.55894 12 3.06C11.5159 2.55894 10.893 2.21422 10.2114 2.07021C9.52975 1.9262 8.82061 1.98949 8.17525 2.25194C7.5299 2.51438 6.97786 2.96397 6.59019 3.54283C6.20252 4.12169 5.99697 4.80333 6 5.5C6.00213 6.01999 6.12178 6.53276 6.35 7H6C5.20435 7 4.44129 7.31607 3.87868 7.87868C3.31607 8.44129 3 9.20435 3 10V12C3 12.2652 3.10536 12.5196 3.29289 12.7071C3.48043 12.8946 3.73478 13 4 13H5V19C5 19.7956 5.31607 20.5587 5.87868 21.1213C6.44129 21.6839 7.20435 22 8 22H16C16.7956 22 17.5587 21.6839 18.1213 21.1213C18.6839 20.5587 19 19.7956 19 19V13H20C20.2652 13 20.5196 12.8946 20.7071 12.7071C20.8946 12.5196 21 12.2652 21 12V10C21 9.20435 20.6839 8.44129 20.1213 7.87868C19.5587 7.31607 18.7956 7 18 7ZM11 20H8C7.73478 20 7.48043 19.8946 7.29289 19.7071C7.10536 19.5196 7 19.2652 7 19V13H11V20ZM11 11H5V10C5 9.73478 5.10536 9.48043 5.29289 9.29289C5.48043 9.10536 5.73478 9 6 9H11V11ZM11 7H9.5C9.20333 7 8.91332 6.91203 8.66665 6.7472C8.41997 6.58238 8.22771 6.34811 8.11418 6.07402C8.00065 5.79994 7.97094 5.49834 8.02882 5.20736C8.0867 4.91639 8.22956 4.64912 8.43934 4.43934C8.64912 4.22956 8.91639 4.0867 9.20736 4.02882C9.49834 3.97094 9.79994 4.00065 10.074 4.11418C10.3481 4.22771 10.5824 4.41997 10.7472 4.66664C10.912 4.91332 11 5.20333 11 5.5V7ZM13 5.5C13 5.20333 13.088 4.91332 13.2528 4.66664C13.4176 4.41997 13.6519 4.22771 13.926 4.11418C14.2001 4.00065 14.5017 3.97094 14.7926 4.02882C15.0836 4.0867 15.3509 4.22956 15.5607 4.43934C15.7704 4.64912 15.9133 4.91639 15.9712 5.20736C16.0291 5.49834 15.9994 5.79994 15.8858 6.07402C15.7723 6.34811 15.58 6.58238 15.3334 6.7472C15.0867 6.91203 14.7967 7 14.5 7H13V5.5ZM17 19C17 19.2652 16.8946 19.5196 16.7071 19.7071C16.5196 19.8946 16.2652 20 16 20H13V13H17V19ZM19 11H13V9H18C18.2652 9 18.5196 9.10536 18.7071 9.29289C18.8946 9.48043 19 9.73478 19 10V11Z" fill="#444A51"/>
</svg>
