<svg width="24" height="24" viewBox="0 0 24 24" fill="none" xmlns="http://www.w3.org/2000/svg">
<path d="M20.172 4.87907C19.112 3.81628 17.7068 3.16761 16.2103 3.05024C14.7139 2.93287 13.2248 3.35454 12.012 4.23907C10.7397 3.29271 9.15599 2.86358 7.57991 3.03811C6.00384 3.21264 4.55243 3.97785 3.51797 5.17966C2.4835 6.38146 1.94282 7.93059 2.0048 9.51509C2.06677 11.0996 2.72681 12.6017 3.85199 13.7191L10.062 19.9391C10.582 20.4509 11.2824 20.7377 12.012 20.7377C12.7416 20.7377 13.442 20.4509 13.962 19.9391L20.172 13.7191C21.3396 12.5443 21.9949 10.9553 21.9949 9.29907C21.9949 7.6428 21.3396 6.0538 20.172 4.87907ZM18.762 12.3391L12.552 18.5491C12.4813 18.6204 12.3972 18.6771 12.3045 18.7157C12.2118 18.7544 12.1124 18.7743 12.012 18.7743C11.9116 18.7743 11.8121 18.7544 11.7195 18.7157C11.6268 18.6771 11.5427 18.6204 11.472 18.5491L5.26199 12.3091C4.47775 11.5074 4.0386 10.4305 4.0386 9.30907C4.0386 8.18761 4.47775 7.11073 5.26199 6.30907C6.06115 5.52006 7.13897 5.07764 8.26199 5.07764C9.38502 5.07764 10.4628 5.52006 11.262 6.30907C11.355 6.4028 11.4656 6.47719 11.5874 6.52796C11.7093 6.57873 11.84 6.60487 11.972 6.60487C12.104 6.60487 12.2347 6.57873 12.3566 6.52796C12.4784 6.47719 12.589 6.4028 12.682 6.30907C13.4811 5.52006 14.559 5.07764 15.682 5.07764C16.805 5.07764 17.8828 5.52006 18.682 6.30907C19.477 7.10022 19.9306 8.17126 19.9455 9.29276C19.9605 10.4143 19.5356 11.497 18.762 12.3091V12.3391Z" fill="#444A51"/>
</svg>
