<svg width="24" height="24" viewBox="0 0 24 24" fill="none" xmlns="http://www.w3.org/2000/svg">
<path d="M20.1745 5.01023C19.1145 3.94744 17.7093 3.29877 16.2129 3.1814C14.7164 3.06403 13.2273 3.48569 12.0145 4.37023C10.7422 3.42387 9.15853 2.99474 7.58246 3.16927C6.00638 3.34379 4.55498 4.10901 3.52051 5.31081C2.48604 6.51262 1.94536 8.06175 2.00734 9.64624C2.06931 11.2307 2.72935 12.7329 3.85453 13.8502L10.0645 20.0702C10.5846 20.582 11.2849 20.8688 12.0145 20.8688C12.7441 20.8688 13.4445 20.582 13.9645 20.0702L20.1745 13.8502C21.3421 12.6755 21.9975 11.0865 21.9975 9.43023C21.9975 7.77396 21.3421 6.18496 20.1745 5.01023Z" fill="#444A51"/>
</svg>
