<svg width="185" height="32" viewBox="0 0 185 32" fill="none" xmlns="http://www.w3.org/2000/svg">
<path d="M46.5869 26H51.5932V21.2803L52.6068 20.0518L56.3539 26H62.1383L56.3334 17.1237L61.9131 10.2745H56.2412L51.8185 15.9054H51.5932V5.03273H46.5869V26ZM70.1977 26.2969C75.1427 26.2969 78.1424 23.031 78.1424 18.1885C78.1424 13.3357 75.1427 10.0698 70.1977 10.0698C65.2528 10.0698 62.2531 13.3357 62.2531 18.1885C62.2531 23.031 65.2528 26.2969 70.1977 26.2969ZM70.2284 22.5191C68.3754 22.5191 67.3516 20.7582 67.3516 18.1577C67.3516 15.5471 68.3754 13.7759 70.2284 13.7759C72.0201 13.7759 73.0439 15.5471 73.0439 18.1577C73.0439 20.7582 72.0201 22.5191 70.2284 22.5191ZM166.801 26.2662C168.992 26.2662 170.507 25.4164 171.367 23.8091H171.49V26H176.199V15.3116C176.199 11.9843 173.241 10.0698 169.238 10.0698C165.009 10.0698 162.614 12.1993 162.214 15.0659L166.832 15.2297C167.047 14.2264 167.876 13.6121 169.197 13.6121C170.425 13.6121 171.203 14.2059 171.203 15.2604V15.3116C171.203 16.274 170.159 16.4787 167.477 16.7142C164.293 16.9804 161.631 18.1577 161.631 21.6386C161.631 24.751 163.791 26.2662 166.801 26.2662ZM168.347 22.99C167.19 22.99 166.371 22.4372 166.371 21.3929C166.371 20.3794 167.17 19.7651 168.593 19.5501C169.524 19.417 170.671 19.2123 171.234 18.9154V20.4101C171.234 21.9458 169.944 22.99 168.347 22.99ZM181.876 26.2969C183.279 26.2969 184.517 25.1093 184.538 23.635C184.517 22.1813 183.279 21.0039 181.876 21.0039C180.402 21.0039 179.194 22.1813 179.214 23.635C179.194 25.1093 180.402 26.2969 181.876 26.2969Z" fill="#292C31"/>
<path d="M80.507 26H85.5133V16.6937C85.5133 15.1376 86.4245 14.1445 87.7349 14.1445C89.0352 14.1445 89.8951 15.0557 89.8951 16.5094V26H94.707V16.6118C94.707 15.1068 95.5362 14.1445 96.9184 14.1445C98.1879 14.1445 99.0888 14.9942 99.0888 16.5606V26H104.095V15.414C104.095 12.0867 102.048 10.0698 99.0786 10.0698C96.7546 10.0698 94.922 11.2881 94.3384 13.1616H94.1746C93.7548 11.2779 92.0656 10.0698 89.8849 10.0698C87.7349 10.0698 86.0969 11.2471 85.4416 13.1616H85.2676V10.2745H80.507V26ZM106.997 26H112.004V16.6937C112.004 15.1376 112.915 14.1445 114.225 14.1445C115.525 14.1445 116.385 15.0557 116.385 16.5094V26H121.197V16.6118C121.197 15.1068 122.027 14.1445 123.409 14.1445C124.678 14.1445 125.579 14.9942 125.579 16.5606V26H130.585V15.414C130.585 12.0867 128.538 10.0698 125.569 10.0698C123.245 10.0698 121.412 11.2881 120.829 13.1616H120.665C120.245 11.2779 118.556 10.0698 116.375 10.0698C114.225 10.0698 112.587 11.2471 111.932 13.1616H111.758V10.2745H106.997V26ZM140.828 26.2969C145.773 26.2969 148.773 23.031 148.773 18.1885C148.773 13.3357 145.773 10.0698 140.828 10.0698C135.883 10.0698 132.883 13.3357 132.883 18.1885C132.883 23.031 135.883 26.2969 140.828 26.2969ZM140.859 22.5191C139.006 22.5191 137.982 20.7582 137.982 18.1577C137.982 15.5471 139.006 13.7759 140.859 13.7759C142.65 13.7759 143.674 15.5471 143.674 18.1577C143.674 20.7582 142.65 22.5191 140.859 22.5191ZM160.014 10.2745H157.178V6.50699H152.171V10.2745H150.093V13.9602H152.171V21.6079C152.141 24.7919 154.209 26.389 157.741 26.2252C158.949 26.1638 159.819 25.9181 160.3 25.7748L159.543 22.1608C159.328 22.212 158.826 22.3143 158.447 22.3143C157.638 22.3143 157.178 21.9867 157.178 21.0551V13.9602H160.014V10.2745Z" fill="#FF4E00"/>
<path d="M36.8867 11H1.11328C0.498453 11 0 11.4985 0 12.1133V25.4727C0 26.0875 0.498453 26.5859 1.11328 26.5859H3.76512L2.34413 29.4279C2.06914 29.9779 2.29202 30.6466 2.84198 30.9216C3.39261 31.1969 4.06095 30.9729 4.33556 30.4237L6.25441 26.586H31.7456L33.6644 30.4237C33.9389 30.9727 34.6072 31.197 35.158 30.9216C35.708 30.6466 35.9309 29.9779 35.6559 29.4279L34.2349 26.5859H36.8867C37.5015 26.5859 38 26.0875 38 25.4727V12.1133C38 11.4985 37.5015 11 36.8867 11ZM22.2656 24.3594H13.3594V13.2266H22.2656V24.3594ZM24.4922 17.6797H35.7734V19.9062H24.4922V17.6797ZM35.7734 15.4531H24.4922V13.2266H35.7734V15.4531ZM2.22656 13.2266H11.1328V24.3594H2.22656V13.2266ZM24.4922 24.3594V22.1328H35.7734V24.3594H24.4922Z" fill="#292C31"/>
<path d="M18.9258 17.6797C19.5406 17.6797 20.0391 17.1813 20.0391 16.5664C20.0391 15.9516 19.5406 15.4531 18.9258 15.4531C18.3109 15.4531 17.8125 15.9516 17.8125 16.5664C17.8125 17.1813 18.3109 17.6797 18.9258 17.6797Z" fill="#FF4E00"/>
<path d="M7.79297 17.6797C8.40782 17.6797 8.90625 17.1813 8.90625 16.5664C8.90625 15.9516 8.40782 15.4531 7.79297 15.4531C7.17812 15.4531 6.67969 15.9516 6.67969 16.5664C6.67969 17.1813 7.17812 17.6797 7.79297 17.6797Z" fill="#FF4E00"/>
</svg>
